<?xml version="1.0" encoding="UTF-8"?><svg id="Calque_1" xmlns="http://www.w3.org/2000/svg" viewBox="0 0 467.21 386.47"><defs><style>.cls-1{fill:#0d0d0d;}.cls-1,.cls-2{stroke-width:0px;}.cls-2{fill:#f2385a;}</style></defs><path class="cls-2" d="M55.69,186.42c-2.77,0-5.05-1.71-6.82-5.13-1.77-3.42-2.66-6.99-2.66-10.71,0-1.37.19-3.03.58-4.99.38-1.95,1.19-3.81,2.43-5.57,1.23-1.76,2.92-3.23,5.08-4.4,2.16-1.17,5.08-1.76,8.78-1.76,4.77,0,8.05,1.81,9.82,5.43,1.77,3.62,2.66,7.38,2.66,11.29,0,2.15-.58,4.16-1.73,6.01-1.16,1.86-2.66,3.52-4.51,4.99s-3.97,2.64-6.35,3.52c-2.39.88-4.82,1.32-7.28,1.32ZM55.69,264.74c-2.77,0-5.05-1.71-6.82-5.13-1.77-3.42-2.66-6.99-2.66-10.71,0-1.37.19-3.03.58-4.99.38-1.95,1.19-3.81,2.43-5.57,1.23-1.76,2.92-3.23,5.08-4.4,2.16-1.17,5.08-1.76,8.78-1.76,4.77,0,8.05,1.81,9.82,5.43,1.77,3.62,2.66,7.38,2.66,11.29,0,2.15-.58,4.16-1.73,6.01s-2.66,3.52-4.51,4.99-3.97,2.64-6.35,3.52c-2.39.88-4.82,1.32-7.28,1.32Z"/><path class="cls-2" d="M177.92,61.45c1.23-.98,2.89-1.86,4.97-2.64,2.08-.78,4.27-1.17,6.59-1.17,2.16,0,4.04.59,5.66,1.76,1.62,1.17,2.43,3.72,2.43,7.63,0,2.93-.62,6.55-1.85,10.85-1.23,4.3-3.16,10.12-5.78,17.45-2.62,7.33-6.01,16.48-10.17,27.43-4.16,10.95-9.17,24.45-15.02,40.48-5.7,15.84-10.98,30.65-15.83,44.44s-9.01,26.01-12.48,36.67c-3.47,10.66-6.2,19.46-8.2,26.4-2,6.94-3,11.49-3,13.64-1.7.98-3.51,1.76-5.43,2.35-1.93.59-3.74.88-5.43.88-2.16,0-4.12-.78-5.89-2.35-1.77-1.57-2.66-4.21-2.66-7.92,0-5.28,3.77-17.89,11.32-37.84,7.55-19.95,18.1-48.69,31.66-86.24,6.01-16.82,10.94-30.65,14.79-41.51,3.85-10.85,6.82-19.6,8.9-26.25,2.08-6.65,3.5-11.73,4.27-15.25.77-3.52,1.16-6.45,1.16-8.8Z"/><path class="cls-2" d="M281.44,61.45c1.23-.98,2.89-1.86,4.97-2.64,2.08-.78,4.28-1.17,6.59-1.17,2.16,0,4.04.59,5.66,1.76,1.62,1.17,2.43,3.72,2.43,7.63,0,2.93-.62,6.55-1.85,10.85-1.23,4.3-3.16,10.12-5.78,17.45-2.62,7.33-6.01,16.48-10.17,27.43-4.16,10.95-9.17,24.45-15.02,40.48-5.7,15.84-10.97,30.65-15.83,44.44-4.85,13.79-9.01,26.01-12.48,36.67-3.47,10.66-6.2,19.46-8.2,26.4-2,6.94-3,11.49-3,13.64-1.7.98-3.51,1.76-5.43,2.35-1.93.59-3.74.88-5.43.88-2.16,0-4.12-.78-5.89-2.35-1.77-1.57-2.66-4.21-2.66-7.92,0-5.28,3.77-17.89,11.32-37.84,7.55-19.95,18.1-48.69,31.66-86.24,6.01-16.82,10.94-30.65,14.79-41.51,3.85-10.85,6.82-19.6,8.9-26.25,2.08-6.65,3.5-11.73,4.27-15.25.77-3.52,1.16-6.45,1.16-8.8Z"/><path class="cls-1" d="M390.27,225.43c-3.54,4.5-7.43,9.09-11.67,13.79-4.24,4.69-8.67,9-13.29,12.91-4.62,3.91-9.4,7.09-14.33,9.53-4.93,2.44-9.86,3.67-14.79,3.67-7.71,0-13.21-2.74-16.52-8.21-3.31-5.47-4.97-12.22-4.97-20.24,0-9.58,1.54-19.26,4.62-29.04,3.08-9.78,7.35-18.53,12.82-26.25,5.47-7.72,11.9-14.03,19.29-18.92,7.39-4.89,15.48-7.33,24.26-7.33,4.77,0,9.01.73,12.71,2.2,3.7,1.47,6.97,3.37,9.82,5.72,2.85,2.35,5.24,4.99,7.16,7.92,1.92,2.93,3.58,5.87,4.97,8.8-.62,2.93-1.19,6.8-1.73,11.59-.54,4.79-.81,8.75-.81,11.88,0,5.28.42,10.22,1.27,14.81.84,4.6,2.12,8.61,3.81,12.03,1.69,3.42,3.89,6.16,6.59,8.21,2.69,2.05,5.81,3.08,9.36,3.08,5.7,0,11.01-1.37,15.94-4.11,4.93-2.74,9.94-7.33,15.02-13.79,2.16.98,3.93,2.25,5.31,3.81,1.39,1.57,2.08,3.42,2.08,5.57,0,1.57-.39,3.13-1.16,4.69-.77,1.57-2.23,3.23-4.39,4.99-7.24,6.06-14.21,10.66-20.91,13.79s-13.52,4.69-20.45,4.69c-9.09,0-15.91-3.03-20.45-9.09-4.55-6.06-7.74-14.96-9.59-26.69ZM390.27,189.64c-.92-4.5-3.12-8.7-6.58-12.61-3.47-3.91-7.59-5.87-12.36-5.87-4.31,0-8.71,1.52-13.17,4.55-4.47,3.03-8.51,7.14-12.13,12.32-3.62,5.18-6.59,11.2-8.9,18.04-2.31,6.85-3.47,14.08-3.47,21.71,0,2.15.15,4.35.46,6.6.31,2.25.84,4.3,1.62,6.16.77,1.86,1.81,3.37,3.12,4.55,1.31,1.17,3.04,1.76,5.2,1.76,4.62,0,9.51-2.25,14.67-6.75,5.16-4.5,9.97-9.87,14.44-16.13,4.47-6.26,8.24-12.56,11.32-18.92,3.08-6.35,5-11.49,5.78-15.4Z"/></svg>